<?xml version="1.0" encoding="utf-8"?>
<!-- Generator: Adobe Illustrator 21.0.0, SVG Export Plug-In . SVG Version: 6.00 Build 0)  -->
<svg version="1.1" id="Layer_1" xmlns="http://www.w3.org/2000/svg" xmlns:xlink="http://www.w3.org/1999/xlink" x="0px" y="0px"
	 viewBox="0 0 512 512" style="enable-background:new 0 0 512 512;" xml:space="preserve">
<style type="text/css">
	.st0{fill:none;stroke:#FFFFFF;stroke-width:40;stroke-miterlimit:10;}
	.st1{fill:#0086E0;}
	.st2{fill:#075BA0;}
	.st3{fill:#333333;}
	.st4{font-family:'DINAlternate-Bold';}
	.st5{font-size:82.0882px;}
</style>
<path class="st0" d="M155,227.7"/>
<path class="st1" d="M119.7,279.3l-22.5-22.5c-12.4-12.4-12.4-32.4,0-44.7s32.4-12.4,44.7,0c12.4,12.4,12.4,32.4,0,44.7l-2.3,2.3
	h-18.2l9.3,9.3L119.7,279.3z M106.2,243.6h26.6c5-7.3,3.2-17.4-4.2-22.4c-7.3-5-17.4-3.2-22.4,4.2
	C102.5,230.8,102.5,238.1,106.2,243.6z"/>
<polygon class="st2" points="121.4,259.2 99.5,259.2 126.5,264.2 "/>
<text transform="matrix(1 0 0 1 157.7075 275.4736)" class="st3 st4 st5">EZUSY</text>
</svg>
