<svg xmlns="http://www.w3.org/2000/svg" viewBox="0 0 512 280.09"><defs><style>.cls-1{fill:#FFF;}</style></defs><title>Asset 1</title><g id="Layer_2" data-name="Layer 2"><g id="Capa_1" data-name="Capa 1"><path class="cls-1" d="M489.48,64.31c-13.83-15-33.52-23.25-55.41-23.25H381.38V12.57A12.61,12.61,0,0,0,368.81,0h-251a12.61,12.61,0,0,0-12.57,12.57V56.35H56.35a12.57,12.57,0,1,0,0,25.14h61.59a12.61,12.61,0,0,0,12.57-12.57V25.14H356.35v197H238a7.93,7.93,0,0,0-1.57.1,42.14,42.14,0,0,0-78.35.21,12.08,12.08,0,0,0-2.72-.31H130.51V178.28a12.61,12.61,0,0,0-12.57-12.57H56.35a12.57,12.57,0,0,0,0,25.14h48.92v43.78a12.61,12.61,0,0,0,12.57,12.57h38.23a42.21,42.21,0,0,0,82.33,0H389a42.21,42.21,0,0,0,82.33,0h28.07A12.61,12.61,0,0,0,512,234.63V130.2C512,103.07,504.14,80.24,489.48,64.31ZM197.24,255.06A17.07,17.07,0,1,1,214.31,238,17.08,17.08,0,0,1,197.24,255.06Zm233,0A17.07,17.07,0,1,1,447.27,238,17.08,17.08,0,0,1,430.19,255.06Zm56.67-32.89h-17.6a42.11,42.11,0,0,0-78.14,0h-9.64V66.2h52.69c33,0,52.69,24,52.69,64.1Z"/><path class="cls-1" d="M215.88,147.17a12.57,12.57,0,0,0,8.9,21.47,12.79,12.79,0,0,0,8.9-3.67l32.37-32.37.1-.1c.21-.31.52-.52.73-.84s.21-.31.31-.52a1.84,1.84,0,0,1,.42-.52l.31-.63c.1-.21.21-.31.31-.52l.31-.63c.1-.21.21-.31.21-.52s.1-.42.21-.63.1-.42.21-.52a1.33,1.33,0,0,0,.1-.63c0-.21.1-.42.1-.63s.1-.42.1-.73.1-.31.1-.52a10.09,10.09,0,0,0,0-2.51.94.94,0,0,0-.1-.52c0-.21-.1-.42-.1-.73s-.1-.42-.1-.63-.1-.42-.1-.63-.1-.42-.21-.52-.1-.42-.21-.63-.21-.31-.21-.52l-.31-.63c-.1-.21-.21-.31-.31-.52l-.31-.63a1.84,1.84,0,0,0-.42-.52c-.1-.21-.21-.31-.31-.52s-.52-.52-.73-.84l-.1-.1-30.8-30.8a12.59,12.59,0,0,0-17.81,17.81l9.32,9.32H12.57a12.57,12.57,0,0,0,0,25.14h214.1Z"/></g></g></svg>